<mxfile host="app.diagrams.net" modified="2023-05-21T18:13:03.921Z" agent="Mozilla/5.0 (Windows NT 10.0; Win64; x64) AppleWebKit/537.36 (KHTML, like Gecko) Chrome/112.0.0.0 Safari/537.36" version="21.3.2" etag="RLjUwCs6E-RU7hhKpbeu" type="github">
  <diagram name="第 1 页" id="UX44KipDHaKeNCEHDLzq">
    <mxGraphModel>
      <root>
        <mxCell id="0" />
        <mxCell id="1" parent="0" />
      </root>
    </mxGraphModel>
  </diagram>
</mxfile>
